<?xml version="1.0" encoding="UTF-8" standalone="no"?>
<svg xmlns="http://www.w3.org/2000/svg" height="168px" width="168px" version="1.1" viewBox="0 0 168 168">
 <path fill="#1ED760" d="m 83.996 0.277 c -46.249 0 -83.743 37.493 -83.743 83.742 c 0 46.251 37.494 83.741 83.743 83.741 c 46.254 0 83.744 -37.49 83.744 -83.741 c 0 -46.246 -37.49 -83.738 -83.745 -83.738 l 0.001 -0.004 z m 38.404 120.78 c -1.5 2.46 -4.72 3.24 -7.18 1.73 c -19.662 -12.01 -44.414 -14.73 -73.564 -8.07 c -2.809 0.64 -5.609 -1.12 -6.249 -3.93 c -0.643 -2.81 1.11 -5.61 3.926 -6.25 c 31.9 -7.291 59.263 -4.15 81.337 9.34 c 2.46 1.51 3.24 4.72 1.73 7.18 z m 10.25 -22.805 c -1.89 3.075 -5.91 4.045 -8.98 2.155 c -22.51 -13.839 -56.823 -17.846 -83.448 -9.764 c -3.453 1.043 -7.1 -0.903 -8.148 -4.35 c -1.04 -3.453 0.907 -7.093 4.354 -8.143 c 30.413 -9.228 68.222 -4.758 94.072 11.127 c 3.07 1.89 4.04 5.91 2.15 8.976 v -0.001 z z"/>
 
 </svg>